<svg width="48" height="48" viewBox="0 0 48 48" fill="none" xmlns="http://www.w3.org/2000/svg">
<g clip-path="url(#clip0_12_507)">
<path d="M24 0C37.2548 0 48 10.7452 48 24C48 37.2548 37.2548 48 24 48C10.7452 48 0 37.2548 0 24C0 10.7452 10.7452 0 24 0ZM23.9616 4.21922C21.4128 4.21922 19.3392 6.2928 19.3392 8.8416C19.3392 9.3168 19.4256 9.792 19.5552 10.224L23.3568 22.4064L17.4384 11.088C17.2224 10.6992 16.92 10.3104 16.6176 10.008C14.8032 8.1936 11.8656 8.1936 10.0944 10.008C8.28 11.7792 8.28 14.7168 10.0944 16.488C10.3968 16.8336 10.7856 17.136 11.2176 17.352L22.4928 23.2704L10.3104 19.4688C9.8784 19.3392 9.4032 19.2528 8.928 19.2528C6.3792 19.2528 4.34878 21.3264 4.34878 23.8752C4.34879 26.424 6.3792 28.4976 8.928 28.4976C9.4032 28.4976 9.8784 28.4112 10.3104 28.2816L22.4928 24.48L11.2176 30.3984C10.7856 30.6144 10.3968 30.9168 10.0944 31.2192C8.28 33.0336 8.28 35.9712 10.0944 37.7424C11.8656 39.5568 14.8032 39.5568 16.6176 37.7424C16.92 37.44 17.2224 37.0512 17.4384 36.6192L23.3568 25.344L19.5552 37.5264C19.4256 37.9584 19.3392 38.4336 19.3392 38.9088C19.3392 41.4576 21.4128 43.488 23.9616 43.488C26.5104 43.488 28.584 41.4576 28.584 38.9088C28.584 38.4336 28.4976 37.9584 28.368 37.5264L24.5664 25.344L30.4848 36.6192C30.7008 37.0512 31.0032 37.44 31.3488 37.7424C33.12 39.5568 36.0576 39.5568 37.872 37.7424C39.6432 35.9712 39.6432 33.0336 37.872 31.2192C37.5264 30.9168 37.1376 30.6144 36.7488 30.3984L25.4304 24.48L37.6128 28.2816C38.0448 28.4112 38.52 28.4976 38.9952 28.4976C41.544 28.4976 43.6176 26.424 43.6176 23.8752C43.6176 21.3264 41.544 19.2528 38.9952 19.2528C38.52 19.2528 38.0448 19.3392 37.6128 19.4688L25.4304 23.2704L36.7488 17.352C37.1376 17.136 37.5264 16.8336 37.8288 16.488C39.6432 14.7168 39.6432 11.7792 37.8288 10.008C36.0576 8.1936 33.12 8.1936 31.3488 10.008C31.0032 10.3104 30.7008 10.6992 30.4848 11.088L24.5664 22.4064L28.368 10.224C28.4976 9.792 28.584 9.3168 28.584 8.8416C28.584 6.2928 26.5104 4.21922 23.9616 4.21922Z" fill="black"/>
</g>
<defs>
<clipPath id="clip0_12_507">
<rect width="48" height="48" fill="white"/>
</clipPath>
</defs>
</svg>
